# Fantastic.Four.2005.1080p.BluRay.REMUX.MPEG-2.DTS-HD.MA.5.1-EPSiLON

```text
General
Unique ID                   : 22849102847102948192048291048102948
Complete name               : Fantastic.Four.2005.1080p.Bluray.MPEG-2.DTS-HD.MA.5.1-EPSiLON.mkv
Format                      : Matroska
Format version              : Version 4
File size                   : 19.8 GiB
Duration                    : 1 h 45 min
Overall bit rate mode       : Variable
Overall bit rate            : 26.9 Mb/s
Movie name                  : Fantastic Four (2005)
Encoded date                : UTC 2026-07-23 23:00:00
Writing application         : mkvmerge v82.0 ('The Spirit Of Radio') 64-bit
Writing library             : libebml v1.4.5 + libmatroska v1.7.1

Video
ID                          : 1
Format                      : MPEG Video
Format version              : Version 2
Format profile              : Main@High
Format settings             : Custom Matrix / BVOP
Format settings, BVOP       : Yes
Format settings, Matrix     : Custom
Codec ID                    : V_MPEG2
Duration                    : 1 h 45 min
Bit rate mode               : Variable
Bit rate                    : 18.0 Mb/s
Maximum bit rate            : 24.0 Mb/s
Width                       : 1 920 pixels
Height                      : 1 080 pixels
Display aspect ratio        : 16:9
Original aspect ratio       : 2.35:1
Frame rate mode             : Constant
Frame rate                  : 23.976 (24000/1001) FPS
Color space                 : YUV
Chroma subsampling          : 4:2:0
Bit depth                   : 8 bits
Scan type                   : Progressive
Compression mode            : Lossy
Bits/(Pixel*Frame)          : 0.362
Stream size                 : 13.2 GiB (67%)
Language                    : English
Default                     : Yes
Forced                      : No

Audio #1
ID                          : 2
Format                      : DTS HD
Format/Info                 : Digital Theater Systems High Definition
Format profile              : MA / Core
Codec ID                    : A_DTS
Duration                    : 1 h 45 min
Bit rate mode               : Variable / Constant
Bit rate                    : 4 215 kbps / 1 509 kbps
Channel(s)                  : 6 channels
Channel layout              : C L R Ls Rs LFE
Sampling rate               : 48.0 kHz
Frame rate                  : 93.750 FPS (512 SPF)
Bit depth                   : 24 bits
Compression mode            : Lossless / Lossy
Stream size                 : 3.10 GiB (16%)
Title                       : DTS-HD Master Audio 5.1
Language                    : English
Default                     : Yes
Forced                      : No

Audio #2
ID                          : 3
Format                      : AC-3
Format/Info                 : Audio Coding 3
Commercial name             : Dolby Digital
Codec ID                    : A_AC3
Duration                    : 1 h 45 min
Bit rate mode               : Constant
Bit rate                    : 448 kbps
Channel(s)                  : 2 channels
Channel layout              : L R
Sampling rate               : 48.0 kHz
Frame rate                  : 31.250 FPS (1536 SPF)
Bit depth                   : 16 bits
Compression mode            : Lossy
Stream size                 : 338 MiB (2%)
Title                       : Audio Commentary with Cast
Language                    : English
Default                     : No
Forced                      : No

Audio #3
ID                          : 4
Format                      : AC-3
Format/Info                 : Audio Coding 3
Commercial name             : Dolby Digital
Codec ID                    : A_AC3
Duration                    : 1 h 45 min
Bit rate mode               : Constant
Bit rate                    : 448 kbps
Channel(s)                  : 6 channels
Channel layout              : L C R Ls Rs LFE
Sampling rate               : 48.0 kHz
Frame rate                  : 31.250 FPS (1536 SPF)
Bit depth                   : 16 bits
Compression mode            : Lossy
Stream size                 : 338 MiB (2%)
Title                       : Spanish Dolby Digital 5.1
Language                    : Spanish
Default                     : No
Forced                      : No

Text #1
ID                          : 5
Format                      : PGS
Codec ID                    : S_HDMV/PGS
Codec ID/Info               : Picture graphic format used on Blu-ray discs
Duration                    : 1 h 42 min
Bit rate                    : 31.2 kbps
Element count               : 2042
Stream size                 : 22.9 MiB (0%)
Title                       : English SDH
Language                    : English
Default                     : Yes
Forced                      : No

Text #2
ID                          : 6
Format                      : PGS
Codec ID                    : S_HDMV/PGS
Codec ID/Info               : Picture graphic format used on Blu-ray discs
Duration                    : 1 h 41 min
Bit rate                    : 26.4 kbps
Element count               : 1780
Stream size                 : 19.4 MiB (0%)
Title                       : Spanish
Language                    : Spanish
Default                     : No
Forced                      : No
```
